<svg xmlns="http://www.w3.org/2000/svg" xmlns:xlink="http://www.w3.org/1999/xlink" viewBox="0 0 274.6 274.6"><defs><style>.cls-1{isolation:isolate;}.cls-2{mix-blend-mode:multiply;fill:url(#radial-gradient);}.cls-3,.cls-5,.cls-6,.cls-7{mix-blend-mode:screen;}.cls-3{fill:url(#linear-gradient);}.cls-4{fill:#007280;}.cls-5{fill:url(#radial-gradient-2);}.cls-6{fill:url(#radial-gradient-3);}.cls-7{fill:url(#radial-gradient-4);}</style><radialGradient id="radial-gradient" cx="141.73" cy="141.73" r="137.3" gradientTransform="translate(141.73 -58.71) rotate(45)" gradientUnits="userSpaceOnUse"><stop offset="0.32" stop-color="#007280"/><stop offset="0.68" stop-color="#00707e"/><stop offset="0.8" stop-color="#006b77"/><stop offset="0.9" stop-color="#00616c"/><stop offset="0.97" stop-color="#00535b"/><stop offset="1" stop-color="#004b51"/></radialGradient><linearGradient id="linear-gradient" x1="40.31" y1="191.04" x2="256.74" y2="191.04" gradientTransform="matrix(0.65, -0.76, 0.76, 0.65, -84.36, 111.81)" gradientUnits="userSpaceOnUse"><stop offset="0.59"/><stop offset="0.65" stop-color="#000a0c"/><stop offset="0.75" stop-color="#00262b"/><stop offset="0.89" stop-color="#00525c"/><stop offset="0.98" stop-color="#007280"/></linearGradient><radialGradient id="radial-gradient-2" cx="1041.66" cy="-1051.27" r="26.17" gradientTransform="matrix(0.83, -0.55, -0.26, -0.39, -1057.83, 203.14)" gradientUnits="userSpaceOnUse"><stop offset="0.25" stop-color="#007280"/><stop offset="1"/></radialGradient><radialGradient id="radial-gradient-3" cx="1002.57" cy="-1096.27" r="26.17" gradientTransform="matrix(0.6, -0.8, -0.15, -0.11, -716.91, 756.38)" xlink:href="#radial-gradient-2"/><radialGradient id="radial-gradient-4" cx="1040.17" cy="-1288.91" r="24.03" gradientTransform="matrix(0.8, 0.86, 0.35, -0.32, -325.62, -1089.8)" gradientUnits="userSpaceOnUse"><stop offset="0.07" stop-color="#007280"/><stop offset="0.16" stop-color="#005d69"/><stop offset="0.34" stop-color="#003c43"/><stop offset="0.51" stop-color="#002226"/><stop offset="0.68" stop-color="#000f11"/><stop offset="0.84" stop-color="#000404"/><stop offset="1"/></radialGradient></defs><g class="cls-1"><g id="Ebene_1" data-name="Ebene 1"><circle class="cls-2" cx="141.73" cy="141.73" r="137.3" transform="translate(-63.14 137.3) rotate(-45)"/><path class="cls-3" d="M227.31,39.25A108.21,108.21,0,1,1,74.81,51.94,108.2,108.2,0,0,1,227.31,39.25Z" transform="translate(-4.43 -4.43)"/><path class="cls-4" d="M127,256a90.38,90.38,0,0,1-42.48-7.56A100.94,100.94,0,0,1,28.1,183.78a90,90,0,0,1-1.74-43.11,136.78,136.78,0,0,0,9,40.64,119.57,119.57,0,0,0,52.53,60.2A136.52,136.52,0,0,0,127,256Z" transform="translate(-4.43 -4.43)"/><path class="cls-5" d="M78.23,30.27c12-8,24.87-9.88,28.66-4.18S104,42.89,92,50.89s-24.85,9.87-28.65,4.18S66.21,38.27,78.23,30.27Z" transform="translate(-4.43 -4.43)"/><path class="cls-6" d="M38,69.13C46.66,57.56,58.12,51.5,63.6,55.6S66.49,72.4,57.83,84,37.72,101.59,32.24,97.5,29.35,80.7,38,69.13Z" transform="translate(-4.43 -4.43)"/><path class="cls-7" d="M61.55,213.63c10.55,11.45,15.37,24.2,10.75,28.46s-16.93-1.59-27.48-13-15.36-24.18-10.75-28.44S51,202.18,61.55,213.63Z" transform="translate(-4.43 -4.43)"/></g></g></svg>