<?xml version="1.0" encoding="utf-8"?>
<!-- Generator: Adobe Illustrator 24.3.0, SVG Export Plug-In . SVG Version: 6.00 Build 0)  -->
<svg version="1.1" id="Lag_1" xmlns="http://www.w3.org/2000/svg" xmlns:xlink="http://www.w3.org/1999/xlink" x="0px" y="0px"
	 viewBox="0 0 566.93 34.02" style="enable-background:new 0 0 566.93 34.02;" xml:space="preserve">
<style type="text/css">
	.st0{fill:#7CC8C8;}
	.st1{fill:#4BBBBE;}
	.st2{fill:#007382;}
</style>
<path class="st0" d="M568.38,7.76v24.69L-1.34,32.62l-0.24-24.9c0,0,40.8-5.73,67.08-6.31c0.59-0.01,1.18-0.03,1.77-0.04
	c5.06-0.14,37.47-0.79,85.94,4.19c0,0,25.38,2.43,38.79,3.01c0.67,0.03,1.35,0.05,2.02,0.05c5.99,0.05,38.7,0.14,88.4-3.39
	c0,0,67.29-4.19,94.52-3.18c0,0,27.17,0.88,60.59,4.58c0,0,38.33,3.99,61.42,3.72c0,0,17.54,0.01,34.02-1.13
	C532.98,9.21,556.49,7.83,568.38,7.76z"/>
<path class="st1" d="M568.19,19.31l0.19,13.9L-1.34,33.3l-0.16-13.24c17.81,0,50.02-5.08,70.04-5.66c12.93-0.37,20.12-0.36,41.2,1.1
	c4.93,0.34,19.1,1.71,27.94,2.62c0,0,30.04,2.87,76.32,0.76c9.29-0.42,32.55-1.23,52.86-2.73c12.83-0.95,29.12-2.07,49.09-3.21
	c0,0,33.92-2.12,75.1-0.56c0,0,17.92,0.47,56.94,4.31c0,0,25.55,2.76,51.07,3.96c0,0,22.97,0.86,43.27-0.64
	C542.32,20.02,552.47,19.28,568.19,19.31z"/>
<path class="st2" d="M568.2,32.83l0.18,1.55L-1.34,34.42l-0.25-7.79c19.03-0.68,37.4-0.47,55.66,0.12
	c13.34,0.43,20.67,0.8,35.43,1.97c15.04,1.19,30.4,1.48,41.66,1.54c0,0,24.82,0.22,52.38-2.5c18.15-1.17,35.32-1.05,49.97-0.37
	c12.75,0.59,28.43,1.79,44.07,2.68c0,0,41.77,2.25,70.74-0.71c0,0,32.47-2.81,60.79-4.17c0,0,30.18-1.94,60.69,0.68
	c0,0,21.87,2.28,46.14,4.54C515.94,30.43,551.03,33.79,568.2,32.83z"/>
</svg>
