<svg id="Layer_1" data-name="Layer 1" xmlns="http://www.w3.org/2000/svg" viewBox="0 0 917.64 1417.32"><defs><style>.cls-1{fill:#fff;}</style></defs><path class="cls-1" d="M708.66,0Q752,97.59,794,204.42q30,76.74,56,150.44c-35.42-41.58-68.08-62.9-82.75-52.3-3.14,2.27-6.6,6.82-8.22,16.82-3.58,452.74-2.74,783,.13,840.56.83,16.58,3.62,46.69,22.24,71.82,12.93,17.46,29.21,26.73,41.94,31.93,26.54,2,108.88,4.34,191.66-56.28,82.23-60.23,76.24-551.38,43.35-647.18a21.4,21.4,0,0,0-9.68-6.05c-14.68-4-33.58,11.19-46.93,38a1069.6,1069.6,0,0,1,12.13-137.95A1050.14,1050.14,0,0,1,1050.3,298a1719.67,1719.67,0,0,1,61,178c21.49,76.18,112.1,684.15,4.69,804.82-39.87,44.8-82.89,74.36-122.79,93.9-55.4,27.13-105.06,33-146.07,38.35-32.23,4.18-66.85,4.21-136.07,4.27-71.62.06-107.43.09-140.88-4.27-41.62-5.42-90.91-11.32-146.09-38.35-39.9-19.55-82.91-49.11-122.78-93.9C193.91,1160.12,284.52,552.15,306,476a1719.17,1719.17,0,0,1,61-178,1050.14,1050.14,0,0,1,36.39,156.2,1067.82,1067.82,0,0,1,12.13,138c-13.35-26.78-32.24-42-46.92-38a21.3,21.3,0,0,0-9.68,6.05c-32.9,95.8-38.88,587,43.35,647.18,82.77,60.62,165.11,58.27,191.65,56.28,12.73-5.2,29-14.47,41.95-31.93,18.61-25.13,21.41-55.24,22.23-71.82,2.87-57.58,3.71-387.82.13-840.56-1.61-10-5.08-14.55-8.21-16.82-14.67-10.6-47.34,10.72-82.76,52.3q26.07-73.62,56-150.44Q665.3,97.07,708.66,0" transform="translate(-249.84)"/></svg>